<svg width="50" height="50" viewBox="0 0 50 50" fill="none" xmlns="http://www.w3.org/2000/svg">
<rect y="0.435547" width="50" height="49.0486" rx="4" fill="#E7E5F9"/>
<path d="M21.8574 28.8733C23.2654 27.656 24.3727 26.6587 25.1794 25.8813C26.0007 25.0893 26.6827 24.268 27.2254 23.4173C27.768 22.5667 28.0394 21.716 28.0394 20.8653C28.0394 19.9853 27.8267 19.296 27.4014 18.7973C26.9907 18.2987 26.338 18.0493 25.4434 18.0493C24.578 18.0493 23.9034 18.328 23.4194 18.8853C22.95 19.428 22.7007 20.1613 22.6714 21.0853H20.2514C20.2954 19.4133 20.794 18.1373 21.7474 17.2573C22.7154 16.3627 23.94 15.9153 25.4214 15.9153C27.02 15.9153 28.2667 16.3553 29.1614 17.2353C30.0707 18.1153 30.5254 19.2887 30.5254 20.7553C30.5254 21.8113 30.254 22.8307 29.7114 23.8133C29.1834 24.7813 28.5454 25.654 27.7974 26.4313C27.064 27.194 26.1254 28.0813 24.9814 29.0933L23.9914 29.9733H30.9654V32.0633H20.2734V30.2373L21.8574 28.8733Z" fill="#5943A6"/>
</svg>
