<svg width="50" height="50" viewBox="0 0 50 50" fill="none" xmlns="http://www.w3.org/2000/svg">
<rect y="0.019043" width="50" height="49.0486" rx="4" fill="#E7E5F9"/>
<path d="M19.7448 19.7888C19.8328 18.4248 20.3534 17.3615 21.3068 16.5988C22.2748 15.8362 23.5068 15.4548 25.0028 15.4548C26.0294 15.4548 26.9168 15.6382 27.6648 16.0048C28.4128 16.3715 28.9774 16.8702 29.3588 17.5008C29.7401 18.1315 29.9308 18.8428 29.9308 19.6348C29.9308 20.5442 29.6888 21.3215 29.2048 21.9668C28.7208 22.6122 28.1414 23.0448 27.4668 23.2648V23.3528C28.3321 23.6168 29.0068 24.1008 29.4908 24.8048C29.9748 25.4942 30.2168 26.3815 30.2168 27.4668C30.2168 28.3322 30.0188 29.1022 29.6228 29.7768C29.2268 30.4515 28.6401 30.9868 27.8628 31.3828C27.0854 31.7642 26.1541 31.9548 25.0688 31.9548C23.4848 31.9548 22.1794 31.5515 21.1528 30.7448C20.1408 29.9235 19.5981 28.7502 19.5248 27.2248H21.9448C22.0034 28.0022 22.3041 28.6402 22.8468 29.1388C23.3894 29.6228 24.1228 29.8648 25.0468 29.8648C25.9414 29.8648 26.6308 29.6228 27.1148 29.1388C27.5988 28.6402 27.8408 28.0022 27.8408 27.2248C27.8408 26.1982 27.5108 25.4722 26.8508 25.0468C26.2054 24.6068 25.2081 24.3868 23.8588 24.3868H23.2868V22.3188H23.8808C25.0688 22.3042 25.9708 22.1062 26.5868 21.7248C27.2174 21.3435 27.5328 20.7422 27.5328 19.9208C27.5328 19.2168 27.3054 18.6595 26.8508 18.2488C26.3961 17.8235 25.7508 17.6108 24.9148 17.6108C24.0934 17.6108 23.4554 17.8235 23.0008 18.2488C22.5461 18.6595 22.2748 19.1728 22.1868 19.7888H19.7448Z" fill="#5943A6"/>
</svg>
